<?xml version="1.0" standalone="no"?>
<!DOCTYPE svg PUBLIC "-//W3C//DTD SVG 20010904//EN"
 "http://www.w3.org/TR/2001/REC-SVG-20010904/DTD/svg10.dtd">
<svg version="1.0" xmlns="http://www.w3.org/2000/svg"
 width="32.000000pt" height="32.000000pt" viewBox="0 0 32.000000 32.000000"
 preserveAspectRatio="xMidYMid meet">

<g transform="translate(0.000000,32.000000) scale(0.100000,-0.100000)"
fill="#000000" stroke="none">
<path d="M221 210 l-2 -55 -29 35 c-16 19 -30 30 -30 23 0 -6 3 -13 8 -15 4
-1 17 -16 29 -31 l22 -29 6 25 c4 13 5 41 2 63 -3 33 -4 30 -6 -16z"/>
<path d="M10 221 c-23 -44 3 -98 35 -71 13 11 15 7 15 -23 0 -43 8 -67 23 -67
7 0 7 4 -1 12 -7 7 -12 34 -12 62 0 48 0 49 -19 32 -34 -31 -56 8 -31 55 6 10
8 19 6 19 -3 0 -10 -9 -16 -19z"/>
<path d="M61 235 c1 -19 18 -51 18 -35 0 8 -4 22 -9 30 -5 8 -9 11 -9 5z"/>
<path d="M257 223 c-21 -21 0 -93 27 -93 5 0 2 6 -9 14 -14 10 -17 21 -12 50
6 37 5 41 -6 29z"/>
<path d="M300 220 c-9 -6 -10 -10 -3 -10 6 0 15 5 18 10 8 12 4 12 -15 0z"/>
<path d="M120 194 c0 -6 6 -18 13 -28 13 -18 14 -18 21 -1 3 10 4 20 1 23 -3
3 -5 -1 -5 -9 -1 -10 -5 -8 -15 5 -8 11 -15 15 -15 10z"/>
</g>
</svg>
